# This file uses centimeters as units for non-parametric coordinates.

mtllib Building_LandingPad.mtl
g default
v -11.167522 3.680439 15.806918
v 10.564363 3.893829 16.036203
v -11.167520 5.135896 15.806918
v 10.564365 5.349287 16.036203
v -11.167520 5.135896 -16.034627
v 10.564365 5.349287 -15.805342
v -11.167522 3.680439 -16.034627
v 10.564363 3.893829 -15.805342
v -9.285757 2.670022 -13.257606
v 11.214761 2.846459 -13.068029
v 11.214761 2.846459 13.259182
v -9.285757 2.670022 13.069604
v -2.490674 2.732203 -1.867509
v 1.887500 2.784279 -1.840800
v 1.887500 2.784279 1.869088
v -2.490674 2.732203 1.842376
v 0.169552 -2.578006 -2.131497
v 3.490289 0.898861 -2.101011
v 3.490289 0.898861 2.133082
v 0.169552 -2.578006 2.102592
v 11.338547 -5.262868 -2.947754
v 11.338547 0.441639 -2.947756
v 11.338547 0.441639 2.984186
v 11.338547 -5.262868 2.984184
v 5.427330 -4.752302 -2.550641
v 7.344354 0.000828 -2.532274
v 7.344354 0.000828 2.569651
v 5.427330 -4.752302 2.551279
vt 0.451219 0.014497
vt 0.541568 0.013544
vt 0.541568 0.013544
vt 0.353082 0.015451
vt 0.443432 0.146877
vt 0.451219 0.146878
vt 0.541568 0.145924
vt 0.451219 0.146878
vt 0.544272 0.134544
vt 0.459042 0.135332
vt 0.459042 0.025878
vt 0.544272 0.025090
vt 0.566803 0.027528
vt 0.548601 0.027640
vt 0.566803 0.012105
vt 0.548601 0.012216
vt 0.573466 0.028610
vt 0.559661 0.028737
vt 0.573466 0.011007
vt 0.559661 0.011134
vt 0.581520 0.030480
vt 0.589490 0.030403
vt 0.606095 0.032131
vt 0.606095 0.032131
vt 0.589490 0.009192
vt 0.606095 0.007469
vt 0.581520 0.009269
vt 0.606095 0.007469
vt 0.451219 0.014497
vt 0.353082 0.147831
vt 0.541568 0.145924
vt 0.443432 0.014497
vt 0.487292 0.087978
vt 0.487292 0.072555
vt 0.505494 0.072443
vt 0.505494 0.087867
vn -0.010550 0.000000 0.999944
vn -0.010550 0.000000 0.999944
vn -0.010550 0.000000 0.999944
vn -0.010550 0.000000 0.999944
vn -0.009819 0.999952 0.000000
vn -0.009819 0.999952 0.000000
vn -0.009819 0.999952 0.000000
vn -0.009819 0.999952 0.000000
vn 0.010550 -0.000000 -0.999944
vn 0.010550 -0.000000 -0.999944
vn 0.010550 -0.000000 -0.999944
vn 0.010550 -0.000000 -0.999944
vn -1.000000 0.000001 0.000000
vn -1.000000 0.000001 0.000000
vn -1.000000 0.000001 0.000000
vn -1.000000 0.000001 0.000000
vn 0.012146 -0.934983 -0.354485
vn 0.012146 -0.934983 -0.354485
vn 0.012146 -0.934983 -0.354485
vn 0.012146 -0.934983 -0.354485
vn 0.005153 -0.936102 0.351691
vn 0.005153 -0.936102 0.351691
vn 0.005153 -0.936102 0.351691
vn 0.005153 -0.936102 0.351691
vn -0.473068 -0.881026 0.000000
vn -0.473068 -0.881026 0.000000
vn -0.473068 -0.881026 0.000000
vn -0.473068 -0.881026 0.000000
vn 0.009176 -0.999957 0.001027
vn 0.009176 -0.999957 0.001027
vn 0.009176 -0.999957 0.001027
vn 0.009176 -0.999957 0.001027
vn 0.006666 -0.999978 0.000000
vn 0.006666 -0.999978 0.000000
vn 0.006666 -0.999978 0.000000
vn 0.006666 -0.999978 0.000000
vn 0.009194 -0.999957 -0.001029
vn 0.009194 -0.999957 -0.001029
vn 0.009194 -0.999957 -0.001029
vn 0.009194 -0.999957 -0.001029
vn 0.009150 -0.999958 0.000000
vn 0.009150 -0.999958 0.000000
vn 0.009150 -0.999958 0.000000
vn 0.009150 -0.999958 0.000000
vn -0.020377 0.060628 -0.997952
vn -0.020377 0.060628 -0.997952
vn -0.025421 0.059982 -0.997876
vn -0.073945 0.053684 -0.995816
vn 0.761903 0.647691 0.000000
vn 0.761903 0.647691 0.000000
vn 0.430013 0.902823 0.000000
vn 0.430043 0.902808 0.000000
vn -0.032042 0.053726 0.998042
vn -0.032042 0.053726 0.998042
vn -0.080443 0.045954 0.995699
vn -0.036603 0.052999 0.997923
vn -0.894082 -0.447903 0.000000
vn -0.894082 -0.447903 0.000000
vn -0.663774 -0.747933 0.000000
vn -0.663722 -0.747979 0.000000
vn -0.081354 0.018249 -0.996518
vn -0.078387 0.034487 -0.996326
vn -0.081633 0.016714 -0.996522
vn -0.081633 0.016714 -0.996522
vn 0.040620 0.999175 0.000000
vn 0.040610 0.999175 0.000000
vn -0.109697 0.993965 0.000000
vn -0.109697 0.993965 0.000000
vn -0.083289 0.029270 0.996096
vn -0.084978 0.015188 0.996267
vn -0.085137 0.013856 0.996273
vn -0.085137 0.013856 0.996273
vn -0.219179 -0.975685 0.000000
vn -0.219340 -0.975648 0.000000
vn -0.086052 -0.996291 0.000000
vn -0.086052 -0.996291 0.000000
s off
g LandingPad
usemtl initialShadingGroup
f 1/1/1 2/2/2 4/3/3 3/29/4
f 3/4/5 4/32/6 6/5/7 5/30/8
f 5/6/9 6/31/10 8/7/11 7/8/12
f 7/8/13 1/1/14 3/29/15 5/6/16
f 7/8/17 8/7/18 10/9/19 9/10/20
f 2/2/21 1/1/22 12/11/23 11/12/24
f 1/1/25 7/8/26 9/10/27 12/11/28
f 9/10/29 10/9/30 14/36/31 13/33/32
f 10/9/33 11/12/34 15/35/35 14/36/36
f 11/12/37 12/11/38 16/34/39 15/35/40
f 12/11/41 9/10/42 13/33/43 16/34/44
s 1
f 13/14/45 14/13/46 18/17/47 17/18/48
s 2
f 14/13/49 15/15/50 19/19/51 18/17/52
s 3
f 15/15/53 16/16/54 20/20/55 19/19/56
s 4
f 16/16/57 13/14/58 17/18/59 20/20/60
s 1
f 25/21/61 26/22/62 22/23/63 21/24/64
s 2
f 26/22/65 27/25/66 23/26/67 22/23/68
s 3
f 27/25/69 28/27/70 24/28/71 23/26/72
s 4
f 28/27/73 25/21/74 21/24/75 24/28/76
s 1
f 17/18/48 18/17/47 26/22/62 25/21/61
s 2
f 18/17/52 19/19/51 27/25/66 26/22/65
s 3
f 19/19/56 20/20/55 28/27/70 27/25/69
s 4
f 20/20/60 17/18/59 25/21/74 28/27/73
