# This file uses centimeters as units for non-parametric coordinates.

mtllib Building_Garage_2.mtl
g default
v -3.877868 0.010366 2.508501
v 3.877868 0.010366 2.508501
v -3.877868 3.315491 2.508501
v 3.877868 3.315491 2.508501
v -3.877868 3.315491 -2.508501
v 3.877868 3.315491 -2.508501
v -3.877868 0.010366 -2.508501
v 3.877868 0.010366 -2.508501
v -4.231486 3.629910 2.508501
v 4.231486 3.629910 2.508501
v 4.231486 3.629910 -2.508501
v -4.231486 3.629910 -2.508501
v -4.368502 3.953818 2.508501
v 4.368502 3.953818 2.508501
v 4.368502 3.953818 -2.508501
v -4.368502 3.953818 -2.508501
v 3.877868 0.008169 -2.022360
v 3.877868 0.008169 2.022360
v 3.877868 2.815880 -1.320741
v 3.877868 2.815880 1.320741
v 3.571923 0.008169 -2.022360
v 3.571923 0.008169 2.022360
v 3.571923 2.815880 -1.320741
v 3.571923 2.815880 1.320741
v -4.371982 4.338973 2.508501
v 4.371982 4.338973 2.508501
v 4.371982 4.338973 -2.508501
v -4.371982 4.338973 -2.508501
vt 0.014396 0.021523
vt 0.457011 0.021523
vt 0.457011 0.210144
vt 0.014396 0.210144
vt 0.054460 0.439412
vt 0.054460 0.439412
vt 0.253977 0.439412
vt 0.253977 0.439412
vt 0.014408 0.210144
vt 0.457022 0.210144
vt 0.457022 0.021523
vt 0.014408 0.021523
vt 0.465349 0.021043
vt 0.751666 0.021043
vt 0.751666 0.209665
vt 0.465349 0.209665
vt 0.054460 0.414027
vt 0.054460 0.414027
vt 0.054460 0.426531
vt 0.054460 0.426531
vt 0.019511 0.234267
vt 0.292021 0.234267
vt 0.292021 0.251346
vt 0.019511 0.251346
vt 0.253977 0.414027
vt 0.253977 0.414027
vt 0.253977 0.426531
vt 0.253977 0.426531
vt 0.253977 0.282587
vt 0.253977 0.414027
vt 0.234644 0.394158
vt 0.234644 0.282500
vt 0.054460 0.414027
vt 0.073793 0.394158
vt 0.054460 0.282587
vt 0.073793 0.282500
vt 0.234644 0.394158
vt 0.234644 0.282500
vt 0.073793 0.394158
vt 0.073793 0.282500
vt 0.054460 0.439412
vt 0.054460 0.439412
vt 0.253977 0.439412
vt 0.253977 0.439412
vn 0.000000 0.000000 1.000000
vn 0.000000 0.000000 1.000000
vn 0.000000 0.000000 1.000000
vn 0.000000 0.000000 1.000000
vn 0.000000 1.000000 0.000000
vn 0.000000 1.000000 0.000000
vn 0.000000 1.000000 0.000000
vn 0.000000 1.000000 0.000000
vn 0.000000 0.000000 -1.000000
vn 0.000000 0.000000 -1.000000
vn 0.000000 0.000000 -1.000000
vn 0.000000 0.000000 -1.000000
vn -1.000000 0.000000 0.000000
vn -1.000000 0.000000 0.000000
vn -1.000000 0.000000 0.000000
vn -1.000000 0.000000 0.000000
vn 0.000000 0.000000 1.000000
vn 0.000000 0.000000 1.000000
vn 0.000000 0.000000 1.000000
vn 0.000000 0.000000 1.000000
vn 0.664472 -0.747313 0.000000
vn 0.664472 -0.747313 0.000000
vn 0.792856 -0.609409 0.000000
vn 0.792856 -0.609409 0.000000
vn 0.000000 0.000000 -1.000000
vn 0.000000 0.000000 -1.000000
vn 0.000000 0.000000 -1.000000
vn 0.000000 0.000000 -1.000000
vn -0.664472 -0.747313 0.000000
vn -0.664472 -0.747313 0.000000
vn -0.792856 -0.609409 0.000000
vn -0.792856 -0.609409 0.000000
vn 0.000000 0.000000 1.000000
vn 0.000000 0.000000 1.000000
vn 0.000000 0.000000 1.000000
vn 0.000000 0.000000 1.000000
vn 0.980929 -0.194364 0.000000
vn 0.980929 -0.194364 0.000000
vn 0.000000 0.000000 -1.000000
vn 0.000000 0.000000 -1.000000
vn 0.000000 0.000000 -1.000000
vn 0.000000 0.000000 -1.000000
vn -0.980929 -0.194364 0.000000
vn -0.980929 -0.194364 0.000000
vn 1.000000 0.000000 0.000000
vn 1.000000 0.000000 0.000000
vn 1.000000 0.000000 0.000000
vn 1.000000 0.000000 0.000000
vn 1.000000 -0.000000 0.000000
vn 1.000000 -0.000000 0.000000
vn 1.000000 -0.000000 0.000000
vn 1.000000 -0.000000 0.000000
vn 1.000000 0.000000 0.000000
vn 1.000000 0.000000 0.000000
vn 1.000000 0.000000 0.000000
vn 1.000000 0.000000 0.000000
vn 0.000000 -0.242435 0.970168
vn 0.000000 -0.242435 0.970168
vn 0.000000 -0.242435 0.970168
vn 0.000000 -0.242435 0.970168
vn 0.000000 -1.000000 0.000000
vn 0.000000 -1.000000 0.000000
vn 0.000000 -1.000000 0.000000
vn 0.000000 -1.000000 0.000000
vn 0.000000 -0.242435 -0.970168
vn 0.000000 -0.242435 -0.970168
vn 0.000000 -0.242435 -0.970168
vn 0.000000 -0.242435 -0.970168
vn 0.000000 0.000000 1.000000
vn 0.000000 0.000000 1.000000
vn 0.000000 0.000000 1.000000
vn 0.000000 0.000000 1.000000
vn 0.999959 -0.009033 0.000000
vn 0.999959 -0.009033 0.000000
vn 0.000000 0.000000 -1.000000
vn 0.000000 0.000000 -1.000000
vn 0.000000 0.000000 -1.000000
vn 0.000000 0.000000 -1.000000
vn -0.999959 -0.009033 0.000000
vn -0.999959 -0.009033 0.000000
s off
g Garage Buildings_Garage_v2
usemtl initialShadingGroup
f 1/1/1 2/2/2 4/3/3 3/4/4
f 25/41/5 26/42/6 27/43/7 28/44/8
f 5/9/9 6/10/10 8/11/11 7/12/12
f 7/13/13 1/14/14 3/15/15 5/16/16
f 3/17/17 4/18/18 10/19/19 9/20/20
s 1
f 4/21/21 6/22/22 11/23/23 10/24/24
s off
f 6/25/25 5/26/26 12/27/27 11/28/28
s 2
f 5/26/29 3/17/30 9/20/31 12/27/32
s off
f 9/20/33 10/19/34 14/6/35 13/5/36
s 1
f 10/19/24 11/28/23 15/7/37 14/6/38
s off
f 11/28/39 12/27/40 16/8/41 15/7/42
s 2
f 12/27/32 9/20/31 13/5/43 16/8/44
s off
f 8/29/45 6/30/46 19/31/47 17/32/48
f 6/30/49 4/33/50 20/34/51 19/31/52
f 4/33/53 2/35/54 18/36/55 20/34/56
f 17/32/57 19/31/58 23/37/59 21/38/60
f 19/31/61 20/34/62 24/39/63 23/37/64
f 20/34/65 18/36/66 22/40/67 24/39/68
f 13/5/69 14/6/70 26/42/71 25/41/72
s 1
f 14/6/38 15/7/37 27/43/73 26/42/74
s off
f 15/7/75 16/8/76 28/44/77 27/43/78
s 2
f 16/8/44 13/5/43 25/41/79 28/44/80
g default
v 3.571923 0.008169 -2.022360
v 3.571923 2.815880 -2.010459
v 3.571923 2.815880 2.010459
v 3.571923 0.008169 2.022360
vt 0.309368 0.230497
vt 0.540198 0.230497
vt 0.540198 0.390731
vt 0.309368 0.390731
vn 1.000000 0.000000 0.000000
vn 1.000000 0.000000 0.000000
vn 1.000000 0.000000 0.000000
vn 1.000000 0.000000 0.000000
s off
g Buildings_Garage_v2 Door
usemtl initialShadingGroup
f 32/45/81 29/46/82 30/47/83 31/48/84
g default
v 3.875894 1.648954 2.390432
v 4.060964 1.648954 2.390432
v 3.875894 2.209237 2.390432
v 4.060964 2.209237 2.390432
v 3.875894 2.209237 1.794218
v 4.060964 2.209237 1.794218
v 3.875894 1.648954 1.794218
v 4.060964 1.648954 1.794218
v 3.918675 1.648954 2.214712
v 4.018183 1.648954 2.214712
v 4.018183 1.648954 2.309966
v 3.918675 1.648954 2.309966
v 3.918675 -0.011285 2.172298
v 4.018183 -0.011285 2.172298
v 4.018183 -0.011285 2.267552
v 3.918675 -0.011285 2.267552
v 3.918675 0.320763 2.253989
v 4.018183 0.320763 2.253989
v 4.018183 0.320763 2.349242
v 3.918675 0.320763 2.349242
v 3.918675 0.719220 2.253989
v 4.018183 0.719220 2.253989
v 4.018183 0.719220 2.349242
v 3.918675 0.719220 2.349242
v 3.918675 1.114866 2.139405
v 4.018183 1.114866 2.139405
v 4.018183 1.114866 2.234658
v 3.918675 1.114866 2.234658
v 3.918675 1.426585 2.119880
v 4.018183 1.426585 2.119880
v 4.018183 1.426585 2.215133
v 3.918675 1.426585 2.215133
vt 0.013662 0.318007
vt 0.013662 0.318007
vt 0.013662 0.334203
vt 0.013662 0.334203
vt 0.030897 0.334203
vt 0.030897 0.334203
vt 0.030897 0.318007
vt 0.030897 0.318007
vt 0.018742 0.318007
vt 0.018742 0.318007
vt 0.015988 0.318007
vt 0.015988 0.318007
vt 0.017606 0.279613
vt 0.017606 0.279613
vt 0.019968 0.270014
vt 0.019968 0.270014
vt 0.014853 0.279613
vt 0.017214 0.270014
vt 0.014853 0.279613
vt 0.017214 0.270014
vt 0.017606 0.291131
vt 0.017606 0.291131
vt 0.014853 0.291131
vt 0.014853 0.291131
vt 0.020918 0.302568
vt 0.020918 0.302568
vt 0.018165 0.302568
vt 0.018165 0.302568
vt 0.021483 0.311579
vt 0.021483 0.311579
vt 0.018729 0.311579
vt 0.018729 0.311579
vn 0.000000 0.000000 1.000000
vn 0.000000 0.000000 1.000000
vn 0.000000 0.000000 1.000000
vn 0.000000 0.000000 1.000000
vn 0.000000 1.000000 0.000000
vn 0.000000 1.000000 0.000000
vn 0.000000 1.000000 0.000000
vn 0.000000 1.000000 0.000000
vn 0.000000 0.000000 -1.000000
vn 0.000000 0.000000 -1.000000
vn 0.000000 0.000000 -1.000000
vn 0.000000 0.000000 -1.000000
vn 1.000000 0.000000 0.000000
vn 1.000000 0.000000 0.000000
vn 1.000000 0.000000 0.000000
vn 1.000000 0.000000 0.000000
vn 0.000000 -1.000000 0.000000
vn 0.000000 -1.000000 0.000000
vn 0.000000 -1.000000 0.000000
vn 0.000000 -1.000000 0.000000
vn 0.000000 -1.000000 0.000000
vn 0.000000 -1.000000 0.000000
vn 0.000000 -1.000000 0.000000
vn 0.000000 -1.000000 0.000000
vn 0.000000 -1.000000 0.000000
vn 0.000000 -1.000000 0.000000
vn 0.000000 -1.000000 0.000000
vn 0.000000 -1.000000 0.000000
vn 0.000000 -1.000000 0.000000
vn 0.000000 -1.000000 0.000000
vn 0.000000 -1.000000 0.000000
vn 0.000000 -1.000000 0.000000
vn 0.000000 0.111134 -0.993805
vn 0.000000 0.111134 -0.993805
vn 0.000000 0.238896 -0.971045
vn 0.000000 0.238896 -0.971045
vn 1.000000 0.000000 0.000000
vn 1.000000 0.000000 0.000000
vn 1.000000 0.000000 0.000000
vn 1.000000 0.000000 0.000000
vn 0.000000 -0.111134 0.993805
vn 0.000000 -0.111134 0.993805
vn 0.000000 -0.238896 0.971045
vn 0.000000 -0.238896 0.971045
vn -1.000000 -0.000000 0.000000
vn -1.000000 -0.000000 0.000000
vn -1.000000 -0.000000 0.000000
vn -1.000000 -0.000000 0.000000
vn 0.000000 -0.142815 -0.989749
vn 0.000000 -0.142815 -0.989749
vn 1.000000 0.000000 0.000000
vn 1.000000 0.000000 0.000000
vn 0.000000 0.142815 0.989749
vn 0.000000 0.142815 0.989749
vn -1.000000 0.000000 0.000000
vn -1.000000 0.000000 0.000000
vn 0.000000 -0.186272 -0.982498
vn 0.000000 -0.186272 -0.982498
vn 1.000000 0.000000 0.000000
vn 1.000000 0.000000 0.000000
vn 0.000000 0.186272 0.982498
vn 0.000000 0.186272 0.982498
vn -1.000000 0.000000 0.000000
vn -1.000000 0.000000 0.000000
vn 0.000000 0.139621 -0.990205
vn 0.000000 0.139621 -0.990205
vn 1.000000 0.000000 0.000000
vn 1.000000 0.000000 0.000000
vn 0.000000 -0.139621 0.990205
vn 0.000000 -0.139621 0.990205
vn -1.000000 -0.000000 0.000000
vn -1.000000 -0.000000 0.000000
vn 0.000000 0.392282 -0.919845
vn 0.000000 0.392282 -0.919845
vn 1.000000 0.000000 0.000000
vn 1.000000 0.000000 0.000000
vn 0.000000 -0.392282 0.919845
vn 0.000000 -0.392282 0.919845
vn -1.000000 -0.000000 0.000000
vn -1.000000 -0.000000 0.000000
s off
g Buildings_Garage_v2 pCube1
usemtl initialShadingGroup
f 33/49/85 34/50/86 36/51/87 35/52/88
f 35/52/89 36/51/90 38/53/91 37/54/92
f 37/54/93 38/53/94 40/55/95 39/56/96
f 34/50/97 40/55/98 38/53/99 36/51/100
f 39/56/101 40/55/102 42/57/103 41/58/104
f 40/55/105 34/50/106 43/59/107 42/57/108
f 34/50/109 33/49/110 44/60/111 43/59/112
f 33/49/113 39/56/114 41/58/115 44/60/116
s 1
f 49/61/117 50/62/118 46/63/119 45/64/120
s 2
f 50/62/121 51/65/122 47/66/123 46/63/124
s 3
f 51/65/125 52/67/126 48/68/127 47/66/128
s 4
f 52/67/129 49/61/130 45/64/131 48/68/132
s 1
f 53/69/133 54/70/134 50/62/118 49/61/117
s 2
f 54/70/135 55/71/136 51/65/122 50/62/121
s 3
f 55/71/137 56/72/138 52/67/126 51/65/125
s 4
f 56/72/139 53/69/140 49/61/130 52/67/129
s 1
f 57/73/141 58/74/142 54/70/134 53/69/133
s 2
f 58/74/143 59/75/144 55/71/136 54/70/135
s 3
f 59/75/145 60/76/146 56/72/138 55/71/137
s 4
f 60/76/147 57/73/148 53/69/140 56/72/139
s 1
f 61/77/149 62/78/150 58/74/142 57/73/141
s 2
f 62/78/151 63/79/152 59/75/144 58/74/143
s 3
f 63/79/153 64/80/154 60/76/146 59/75/145
s 4
f 64/80/155 61/77/156 57/73/148 60/76/147
s 1
f 41/58/157 42/57/158 62/78/150 61/77/149
s 2
f 42/57/159 43/59/160 63/79/152 62/78/151
s 3
f 43/59/161 44/60/162 64/80/154 63/79/153
s 4
f 44/60/163 41/58/164 61/77/156 64/80/155
