# This file uses centimeters as units for non-parametric coordinates.

mtllib Building_Office_Mid.mtl
g default
v 21.804865 0.000000 -21.800814
v -21.804867 0.000000 -21.800814
v 21.804865 0.000000 21.800814
v -21.804865 0.000000 21.800814
v 0.000001 0.000000 26.488198
v 0.000001 0.000000 -26.488198
v 26.602527 0.000000 0.000000
v -26.602527 0.000000 -0.000000
v 11.916863 0.000000 26.128911
v -11.916863 0.000000 26.128911
v 11.916863 0.000000 -26.128911
v -11.916863 0.000000 -26.128911
v 26.187257 0.000000 -11.916863
v 26.187257 0.000000 11.916863
v -26.187257 0.000000 11.916863
v -26.187257 0.000000 -11.916863
v 0.000001 52.562209 26.488170
v -11.916854 52.562209 26.128895
v -21.804869 52.562209 21.800832
v 21.804869 52.562209 21.800832
v 11.916854 52.562209 26.128895
v 0.000001 52.562209 -26.488170
v -11.916854 52.562209 -26.128895
v -21.804867 52.562209 -21.800832
v 21.804869 52.562209 -21.800832
v 11.916854 52.562209 -26.128895
v 26.602527 52.562209 0.000000
v 26.187289 52.562209 11.916854
v 26.187289 52.562209 -11.916854
v -26.602527 52.562209 -0.000000
v -26.187289 52.562209 -11.916854
v -26.187289 52.562209 11.916854
vt 0.461253 0.024250
vt 0.461253 0.470157
vt 0.360157 0.470157
vt 0.360158 0.024250
vt 0.259062 0.470157
vt 0.259062 0.024250
vt 0.663445 0.024249
vt 0.663445 0.470157
vt 0.562349 0.470157
vt 0.562349 0.024249
vt 0.461253 0.024250
vt 0.562349 0.024250
vt 0.562349 0.470157
vt 0.461253 0.470157
vt 0.663445 0.024250
vt 0.663445 0.470157
vt 0.259062 0.024250
vt 0.360158 0.024250
vt 0.360158 0.470157
vt 0.259062 0.470157
vt 0.865636 0.024249
vt 0.865636 0.470157
vt 0.764541 0.470157
vt 0.764541 0.024249
vt 0.157966 0.470157
vt 0.157966 0.024250
vt 0.056870 0.470157
vt 0.056870 0.024250
vt 0.764541 0.024250
vt 0.764541 0.470157
vt 0.865636 0.470157
vt 0.764541 0.024250
vt 0.157966 0.470157
vt 0.157966 0.024250
vt 0.056870 0.470157
vt 0.056870 0.024250
vt 0.157966 0.024250
vt 0.157966 0.470157
vt 0.865636 0.024250
vt 0.764540 0.470157
vt 0.157966 0.024250
vt 0.157966 0.470157
vt 0.764541 0.024249
vt 0.764541 0.470157
vt 0.360157 0.024250
vt 0.360157 0.470157
vt 0.259062 0.024250
vt 0.259062 0.470157
vt 0.663445 0.024250
vt 0.663445 0.470157
vt 0.562349 0.024250
vt 0.562349 0.470157
vt 0.461253 0.024250
vt 0.461253 0.470157
vt 0.562349 0.024249
vt 0.562349 0.470157
vt 0.663445 0.024249
vt 0.663445 0.470157
vt 0.259062 0.024249
vt 0.259062 0.470157
vt 0.360157 0.024250
vt 0.360157 0.470157
vt 0.461253 0.024249
vt 0.461253 0.470157
vn 0.000000 0.000000 1.000000
vn 0.000000 0.000000 1.000000
vn -0.210167 0.000000 0.977665
vn -0.210167 0.000000 0.977665
vn -0.705656 -0.000000 0.708554
vn -0.705656 -0.000000 0.708554
vn 0.705656 -0.000000 0.708554
vn 0.705656 -0.000000 0.708554
vn 0.210167 0.000000 0.977665
vn 0.210167 0.000000 0.977665
vn 0.000000 0.000000 -1.000000
vn -0.210167 0.000000 -0.977665
vn -0.210167 0.000000 -0.977665
vn 0.000000 0.000000 -1.000000
vn -0.705656 -0.000000 -0.708554
vn -0.705656 -0.000000 -0.708554
vn 0.705656 -0.000000 -0.708554
vn 0.210167 0.000000 -0.977665
vn 0.210167 0.000000 -0.977665
vn 0.705656 -0.000000 -0.708554
vn 1.000000 -0.000000 0.000000
vn 1.000000 -0.000000 0.000000
vn 0.976631 -0.000000 0.214925
vn 0.976631 -0.000000 0.214925
vn 0.976631 -0.000000 -0.214925
vn 0.976631 -0.000000 -0.214925
vn -1.000000 -0.000000 0.000000
vn -1.000000 -0.000000 0.000000
vn -0.976631 -0.000000 -0.214925
vn -0.976631 -0.000000 -0.214925
vn -0.976631 -0.000000 0.214925
vn -0.976631 -0.000000 0.214925
s 1
g polySurface1 Building_Office_Mid
usemtl initialShadingGroup
f 5/1/1 17/64/2 18/3/3 10/61/4
f 10/4/4 18/62/3 19/5/5 4/59/6
f 3/7/7 20/58/8 21/9/9 9/55/10
f 9/10/10 21/56/9 17/2/2 5/63/1
f 6/53/11 12/12/12 23/52/13 22/14/14
f 12/51/12 2/15/15 24/50/16 23/13/13
f 1/47/17 11/18/18 26/46/19 25/20/20
f 11/45/18 6/11/11 22/54/14 26/19/19
f 7/21/21 27/22/22 28/23/23 14/43/24
f 14/24/24 28/44/23 20/8/8 3/57/7
f 1/17/17 25/48/20 29/25/25 13/41/26
f 13/26/26 29/42/25 27/27/22 7/28/21
f 8/29/27 30/30/28 31/31/29 16/39/30
f 16/32/30 31/40/29 24/16/16 2/49/15
f 4/6/6 19/60/5 32/33/31 15/37/32
f 15/34/32 32/38/31 30/35/28 8/36/27
