# This file uses centimeters as units for non-parametric coordinates.

mtllib Building_Connection.mtl
g default
v -5.192768 11.361114 -27.161500
v 5.417388 -9.731024 -27.161500
v -5.417388 -9.731024 -27.161500
v 5.192768 11.361114 -27.161500
v 0.000000 12.856408 -27.161500
v 0.000000 -10.761957 -27.161500
v 10.767638 -0.000009 -27.161500
v -10.767638 -0.000009 -27.161500
v -5.087087 11.301363 -14.261295
v -10.548500 0.138720 -14.261295
v 0.000000 12.733493 -14.261295
v 0.000000 -10.196015 -14.261295
v -5.307135 -9.186063 -14.261295
v 10.548500 0.138720 -14.261295
v 5.307135 -9.186063 -14.261295
v 5.087087 11.301363 -14.261295
v -4.856900 10.655642 -0.574731
v -10.070929 -0.058107 -0.574363
v 0.000000 11.969311 -0.574731
v 0.000000 -10.125324 -0.573961
v -5.066717 -9.161123 -0.573961
v 10.070929 -0.058107 -0.574363
v 5.066717 -9.161123 -0.573961
v 4.856900 10.655642 -0.574731
v -4.647478 9.576249 13.151788
v -9.636933 -0.710459 13.151788
v 0.000000 10.797046 13.151788
v 0.000000 -10.341895 13.151806
v -4.848307 -9.419256 13.151806
v 9.636933 -0.710459 13.151788
v 4.848307 -9.419256 13.151806
v 4.647478 9.576249 13.151788
v -4.463447 8.244093 27.376026
v -9.255332 -1.678516 27.376026
v 0.000000 9.372229 27.376026
v 0.000000 -10.928958 27.376026
v -4.656519 -10.042815 27.376026
v 9.255332 -1.678516 27.376026
v 4.656519 -10.042815 27.376026
v 4.463447 8.244093 27.376026
v 9.830862 -7.061252 -27.161500
v -9.830862 -7.061252 -27.161500
v -9.630790 -6.759170 -14.261295
v -9.194767 -6.828688 -0.574363
v -8.798529 -7.258577 13.151788
v -8.450127 -8.053496 27.376026
v 8.450127 -8.053496 27.376026
v 8.798529 -7.258577 13.151788
v 9.194767 -6.828688 -0.574363
v 9.630790 -6.759170 -14.261295
v 10.525852 -3.530630 -27.161500
v 10.311637 -3.310225 -14.261295
v 9.844788 -3.443398 -0.574363
v 9.420537 -3.984517 13.151788
v 9.047501 -4.866005 27.376026
v -9.047501 -4.866005 27.376026
v -9.420537 -3.984517 13.151788
v -9.844788 -3.443398 -0.574363
v -10.311637 -3.310225 -14.261295
v -10.525852 -3.530630 -27.161500
v 10.155544 4.609541 -27.161500
v 9.948864 4.629781 -14.261295
v 9.498440 4.190657 -0.574363
v 9.089118 3.326472 13.151788
v 8.729207 2.165143 27.376026
v -8.729207 2.165143 27.376026
v -9.089118 3.326472 13.151788
v -9.498440 4.190657 -0.574363
v -9.948864 4.629781 -14.261295
v -10.155544 4.609541 -27.161500
v 8.972605 8.174042 -27.161500
v 8.790002 8.146418 -14.261295
v 8.392258 7.589195 -0.574731
v 8.030396 6.606369 13.151788
v 7.712409 5.347495 27.376026
v -7.712409 5.347495 27.376026
v -8.030396 6.606369 13.151788
v -8.392258 7.589195 -0.574731
v -8.790002 8.146418 -14.261295
v -8.972605 8.174042 -27.161500
vt 0.712354 0.557769
vt 0.901563 0.564738
vt 0.904059 0.496295
vt 0.714613 0.491377
vt 0.890495 0.772374
vt 0.895330 0.692899
vt 0.706097 0.683150
vt 0.700585 0.760448
vt 0.716067 0.440690
vt 0.905715 0.444257
vt 0.907268 0.391396
vt 0.717408 0.389110
vt 0.907995 0.315650
vt 0.907695 0.234610
vt 0.717690 0.237006
vt 0.717895 0.316295
vt 0.907836 0.315644
vt 0.717736 0.316355
vt 0.717275 0.389171
vt 0.907135 0.391390
vt 0.905601 0.444252
vt 0.715952 0.440750
vt 0.903963 0.496291
vt 0.901491 0.564735
vt 0.712279 0.557831
vt 0.714516 0.491439
vt 0.895302 0.692898
vt 0.706066 0.683215
vt 0.511774 0.545928
vt 0.513521 0.482915
vt 0.505798 0.667108
vt 0.499281 0.740799
vt 0.514614 0.433026
vt 0.515588 0.382327
vt 0.516671 0.236920
vt 0.516160 0.312605
vt 0.516000 0.312735
vt 0.515452 0.382457
vt 0.514496 0.433156
vt 0.511696 0.546060
vt 0.513420 0.483046
vt 0.505762 0.667242
vt 0.310500 0.529524
vt 0.311791 0.469579
vt 0.304971 0.646328
vt 0.298034 0.716663
vt 0.312523 0.421285
vt 0.313107 0.372230
vt 0.315422 0.233568
vt 0.314064 0.305955
vt 0.313902 0.306155
vt 0.312968 0.372431
vt 0.312401 0.421486
vt 0.310416 0.529726
vt 0.311686 0.469781
vt 0.304928 0.646531
vt 0.101728 0.509802
vt 0.102791 0.452829
vt 0.096539 0.622788
vt 0.089652 0.690146
vt 0.103348 0.405945
vt 0.103737 0.358372
vt 0.106552 0.226148
vt 0.104843 0.295512
vt 0.104677 0.295785
vt 0.103593 0.358646
vt 0.103221 0.406219
vt 0.101637 0.510077
vt 0.102680 0.453103
vt 0.096487 0.623065
vt 0.899163 0.620062
vt 0.710137 0.612052
vt 0.509943 0.598571
vt 0.308983 0.580424
vt 0.100362 0.559167
vt 0.100437 0.558892
vt 0.309050 0.580222
vt 0.510004 0.598439
vt 0.710193 0.611989
vt 0.899216 0.620065
vt 0.315609 0.233368
vt 0.106742 0.225875
vt 0.298015 0.716869
vt 0.089623 0.690424
vt 0.516857 0.236790
vt 0.499270 0.740935
vt 0.717876 0.236946
vt 0.700581 0.760514
vt 0.907508 0.234604
vt 0.890495 0.772374
vn -0.976192 0.215219 0.027034
vn -0.976679 0.214171 0.015105
vn -0.998857 0.044828 0.016569
vn -0.998587 0.046267 0.026148
vn 0.000000 0.999966 0.008246
vn -0.463227 0.886194 0.009035
vn -0.461685 0.886523 0.030394
vn 0.000000 0.999513 0.031189
vn -0.991145 -0.130282 0.025651
vn -0.991038 -0.132258 0.018741
vn -0.764622 -0.643732 0.031012
vn -0.767913 -0.640025 0.026052
vn -0.343333 -0.938384 0.039481
vn 0.000000 -0.999039 0.043829
vn 0.000000 -0.999704 0.024315
vn -0.341524 -0.939578 0.023543
vn 0.343333 -0.938384 0.039481
vn 0.341524 -0.939578 0.023543
vn 0.767913 -0.640025 0.026052
vn 0.764622 -0.643732 0.031012
vn 0.991038 -0.132258 0.018741
vn 0.991145 -0.130282 0.025651
vn 0.998857 0.044828 0.016569
vn 0.976679 0.214171 0.015105
vn 0.976192 0.215219 0.027034
vn 0.998587 0.046267 0.026148
vn 0.463227 0.886194 0.009035
vn 0.461685 0.886523 0.030394
vn -0.975761 0.215052 0.040536
vn -0.998321 0.046376 0.034706
vn -0.460711 0.885226 0.064184
vn 0.000000 0.997666 0.068284
vn -0.991308 -0.128323 0.029002
vn -0.766773 -0.641793 0.012694
vn 0.000000 -0.999987 -0.005091
vn -0.335725 -0.941957 -0.002593
vn 0.335725 -0.941957 -0.002593
vn 0.766773 -0.641793 0.012694
vn 0.991308 -0.128323 0.029002
vn 0.975761 0.215052 0.040536
vn 0.998321 0.046376 0.034706
vn 0.460711 0.885226 0.064184
vn -0.975759 0.214738 0.042219
vn -0.998436 0.045901 0.031912
vn -0.460395 0.883746 0.083841
vn 0.000000 0.995869 0.090806
vn -0.991728 -0.126482 0.021858
vn -0.766660 -0.642028 -0.005646
vn 0.000000 -0.999593 -0.028515
vn -0.330478 -0.943459 -0.025879
vn 0.330478 -0.943459 -0.025879
vn 0.766660 -0.642028 -0.005646
vn 0.991728 -0.126482 0.021858
vn 0.975759 0.214738 0.042219
vn 0.998436 0.045901 0.031912
vn 0.460395 0.883746 0.083841
vn -0.976746 0.210319 0.041639
vn -0.998720 0.041000 0.029622
vn -0.464953 0.880759 0.089902
vn 0.000000 0.995176 0.098103
vn -0.991533 -0.128612 0.017931
vn -0.753533 -0.657205 -0.016380
vn 0.000000 -0.999149 -0.041237
vn -0.323814 -0.945343 -0.038355
vn 0.323814 -0.945343 -0.038355
vn 0.753533 -0.657206 -0.016380
vn 0.991533 -0.128612 0.017931
vn 0.976746 0.210319 0.041639
vn 0.998720 0.041000 0.029622
vn 0.464953 0.880759 0.089902
vn 0.807508 0.589730 0.012255
vn 0.807068 0.589712 0.029694
vn 0.809451 0.584650 0.054535
vn 0.812730 0.578928 0.065675
vn 0.820737 0.567240 0.068042
vn -0.820737 0.567241 0.068042
vn -0.812730 0.578928 0.065675
vn -0.809451 0.584650 0.054535
vn -0.807068 0.589712 0.029694
vn -0.807508 0.589730 0.012255
s 1
g Building_Connection
usemtl initialShadingGroup
f 69/1/1 70/2/2 8/3/3 10/4/4
f 5/90/5 1/6/6 9/7/7 11/8/8
f 59/9/9 60/10/10 42/11/11 43/12/12
f 3/13/13 6/14/14 12/87/15 13/16/16
f 6/89/14 2/17/17 15/18/18 12/15/15
f 50/19/19 41/20/20 51/21/21 52/22/22
f 7/23/23 61/24/24 62/25/25 14/26/26
f 4/27/27 5/5/5 11/88/8 16/28/28
f 68/29/29 69/1/1 10/4/4 18/30/30
f 11/8/8 9/7/7 17/31/31 19/32/32
f 58/33/33 59/9/9 43/12/12 44/34/34
f 13/16/16 12/87/15 20/85/35 21/36/36
f 12/15/15 15/18/18 23/37/37 20/35/35
f 49/38/38 50/19/19 52/22/22 53/39/39
f 14/26/26 62/25/25 63/40/40 22/41/41
f 16/28/28 11/88/8 19/86/32 24/42/42
f 67/43/43 68/29/29 18/30/30 26/44/44
f 19/32/32 17/31/31 25/45/45 27/46/46
f 57/47/47 58/33/33 44/34/34 45/48/48
f 21/36/36 20/85/35 28/81/49 29/50/50
f 20/35/35 23/37/37 31/51/51 28/49/49
f 48/52/52 49/38/38 53/39/39 54/53/53
f 22/41/41 63/40/40 64/54/54 30/55/55
f 24/42/42 19/86/32 27/83/46 32/56/56
f 66/57/57 67/43/43 26/44/44 34/58/58
f 27/46/46 25/45/45 33/59/59 35/60/60
f 56/61/61 57/47/47 45/48/48 46/62/62
f 29/50/50 28/81/49 36/82/63 37/64/64
f 28/49/49 31/51/51 39/65/65 36/63/63
f 47/66/66 48/52/52 54/53/53 55/67/67
f 30/55/55 64/54/54 65/68/68 38/69/69
f 32/56/56 27/83/46 35/84/60 40/70/70
f 43/12/12 42/11/11 3/13/13 13/16/16
f 44/34/34 43/12/12 13/16/16 21/36/36
f 45/48/48 44/34/34 21/36/36 29/50/50
f 46/62/62 45/48/48 29/50/50 37/64/64
f 31/51/51 48/52/52 47/66/66 39/65/65
f 23/37/37 49/38/38 48/52/52 31/51/51
f 15/18/18 50/19/19 49/38/38 23/37/37
f 2/17/17 41/20/20 50/19/19 15/18/18
f 52/22/22 51/21/21 7/23/23 14/26/26
f 53/39/39 52/22/22 14/26/26 22/41/41
f 54/53/53 53/39/39 22/41/41 30/55/55
f 55/67/67 54/53/53 30/55/55 38/69/69
f 26/44/44 57/47/47 56/61/61 34/58/58
f 18/30/30 58/33/33 57/47/47 26/44/44
f 10/4/4 59/9/9 58/33/33 18/30/30
f 8/3/3 60/10/10 59/9/9 10/4/4
f 62/25/25 61/24/24 71/71/71 72/72/72
f 63/40/40 62/25/25 72/72/72 73/73/73
f 64/54/54 63/40/40 73/73/73 74/74/74
f 65/68/68 64/54/54 74/74/74 75/75/75
f 76/76/76 77/77/77 67/43/43 66/57/57
f 77/77/77 78/78/78 68/29/29 67/43/43
f 78/78/78 79/79/79 69/1/1 68/29/29
f 79/79/79 80/80/80 70/2/2 69/1/1
f 72/72/72 71/71/71 4/27/27 16/28/28
f 73/73/73 72/72/72 16/28/28 24/42/42
f 74/74/74 73/73/73 24/42/42 32/56/56
f 75/75/75 74/74/74 32/56/56 40/70/70
f 25/45/45 77/77/77 76/76/76 33/59/59
f 17/31/31 78/78/78 77/77/77 25/45/45
f 9/7/7 79/79/79 78/78/78 17/31/31
f 1/6/6 80/80/80 79/79/79 9/7/7
