# This file uses centimeters as units for non-parametric coordinates.

mtllib Building_Generic_Block.mtl
g default
v -22.992568 25.121455 20.819904
v 22.999227 25.121455 20.819878
v -22.992568 25.373652 20.819904
v 22.999227 25.373652 20.819878
v -22.914012 25.373652 -20.819901
v 22.999227 25.373652 -20.819904
v -22.914012 25.121455 -20.819901
v 22.999227 25.121455 -20.819904
v -22.914012 25.373652 -20.711117
v -22.914012 25.121455 -20.711115
v -22.992572 25.373652 -10.152282
v -22.992572 25.121455 -10.152281
v -5.921904 21.686946 20.819878
v 5.932151 21.686946 20.819878
v -5.921904 21.434749 20.819878
v 5.932151 21.434749 20.819878
v -10.663515 25.373652 20.819878
v -10.663515 25.121455 20.819878
v 10.673771 25.373652 20.819878
v 10.673771 25.121455 20.819878
v -4.650189 22.682368 -20.819904
v 4.621576 22.682368 -20.819904
v -4.650189 22.430171 -20.819904
v 4.621576 22.430171 -20.819904
v -8.358893 25.373652 -20.819904
v -8.358893 25.121455 -20.819904
v 8.330280 25.373652 -20.819904
v 8.330280 25.121455 -20.819904
v -22.997630 25.373652 -13.319950
v -22.979692 25.373652 -17.543473
v -22.979692 25.121455 -17.543472
v -22.997630 25.121455 -13.319950
v -22.988915 24.428340 -14.164655
v -22.999227 24.428340 -16.698769
v -22.999227 24.176143 -16.698768
v -22.988914 24.176143 -14.164654
v 22.999227 25.373652 -12.721109
v 22.999227 26.397029 -14.065616
v 22.999227 26.397029 -16.450294
v 22.999227 25.373652 -17.794827
v 22.999227 25.121455 -17.794815
v 22.999227 26.144832 -16.450294
v 22.999227 26.144832 -14.065616
v 22.999227 25.121455 -12.721109
v -22.992568 11.971736 20.819904
v 22.999227 11.971736 20.819878
v -22.992568 12.223933 20.819904
v 22.999227 12.223933 20.819878
v -22.914012 12.223933 -20.767891
v 22.999227 12.223933 -20.767895
v -22.914012 11.971736 -20.767891
v 22.999227 11.971736 -20.767895
v -22.914012 12.223933 -20.659103
v -22.914012 11.971736 -20.659100
v -22.992572 12.223933 -10.152282
v -22.992572 11.971736 -10.152281
v -5.921904 15.444453 20.819878
v 5.932151 15.444453 20.819878
v -5.921904 15.192256 20.819878
v 5.932151 15.192256 20.819878
v -10.663515 12.223933 20.819878
v -10.663515 11.971736 20.819878
v 10.673771 12.223933 20.819878
v 10.673771 11.971736 20.819878
v -4.650189 15.435908 -20.767895
v 4.621576 15.435908 -20.767895
v -4.650189 15.183711 -20.767895
v 4.621576 15.183711 -20.767895
v -8.358893 12.223933 -20.767895
v -8.358893 11.971736 -20.767895
v 8.330280 12.223933 -20.767895
v 8.330280 11.971736 -20.767895
v -22.997630 12.223933 -13.319950
v -22.979692 12.223933 -17.543473
v -22.979692 11.971736 -17.543472
v -22.997630 11.971736 -13.319950
v -22.988915 13.247371 -14.164655
v -22.999227 13.247371 -16.698769
v -22.999227 12.995112 -16.698768
v -22.988914 12.995112 -14.164654
v 22.999227 12.223933 -12.721109
v 22.999227 13.247371 -14.065616
v 22.999227 13.247371 -16.450294
v 22.999227 12.223933 -17.794827
v 22.999227 11.971736 -17.794815
v 22.999227 12.995112 -16.450294
v 22.999227 12.995112 -14.065616
v 22.999227 11.971736 -12.721109
vt 0.336214 0.707504
vt 0.341145 0.707535
vt 0.340908 0.745866
vt 0.335976 0.745836
vt 0.341303 0.688785
vt 0.336372 0.688754
vt 0.336095 0.733336
vt 0.341027 0.733366
vt 0.351151 0.822596
vt 0.356082 0.822626
vt 0.356082 0.822626
vt 0.351151 0.822596
vt 0.352340 0.630939
vt 0.357271 0.630969
vt 0.357271 0.630969
vt 0.352340 0.630939
vt 0.357465 0.599718
vt 0.357465 0.599718
vt 0.352533 0.599687
vt 0.352533 0.599687
vt 0.352398 0.621563
vt 0.357329 0.621594
vt 0.351959 0.692269
vt 0.356891 0.692300
vt 0.351531 0.761266
vt 0.356463 0.761296
vt 0.356082 0.822626
vt 0.351151 0.822596
vt 0.351593 0.751265
vt 0.356525 0.751296
vt 0.352091 0.671018
vt 0.357022 0.671049
vt 0.351151 0.822596
vt 0.356082 0.822626
vt 0.352460 0.611563
vt 0.357391 0.611593
vt 0.357345 0.619094
vt 0.352413 0.619063
vt 0.357407 0.609093
vt 0.352475 0.609063
vt 0.356082 0.822626
vt 0.351151 0.822596
vt 0.356082 0.822626
vt 0.351151 0.822596
vt 0.336214 0.707504
vt 0.341145 0.707535
vt 0.340908 0.745866
vt 0.335976 0.745836
vt 0.341303 0.688785
vt 0.336372 0.688754
vt 0.336095 0.733336
vt 0.341027 0.733366
vt 0.351151 0.822596
vt 0.356082 0.822626
vt 0.356082 0.822626
vt 0.351151 0.822596
vt 0.352340 0.630939
vt 0.357271 0.630969
vt 0.357271 0.630969
vt 0.352340 0.630939
vt 0.357465 0.599718
vt 0.357465 0.599718
vt 0.352533 0.599687
vt 0.352533 0.599687
vt 0.352398 0.621563
vt 0.357329 0.621594
vt 0.351959 0.692269
vt 0.356891 0.692300
vt 0.351531 0.761266
vt 0.356463 0.761296
vt 0.356082 0.822626
vt 0.351151 0.822596
vt 0.351593 0.751265
vt 0.356525 0.751296
vt 0.352091 0.671018
vt 0.357022 0.671049
vt 0.351151 0.822596
vt 0.356082 0.822626
vt 0.352460 0.611563
vt 0.357391 0.611593
vt 0.357345 0.619094
vt 0.352413 0.619063
vt 0.357407 0.609093
vt 0.352475 0.609063
vt 0.356082 0.822626
vt 0.351151 0.822596
vt 0.356082 0.822626
vt 0.351151 0.822596
vn 0.000000 0.000000 1.000000
vn 0.000000 0.000000 1.000000
vn 0.000000 0.000000 1.000000
vn 0.000000 0.000000 1.000000
vn 0.000000 0.000000 -1.000000
vn 0.000000 0.000000 -1.000000
vn 0.000000 0.000000 -1.000000
vn 0.000000 0.000000 -1.000000
vn 1.000000 0.000000 0.000000
vn 1.000000 0.000000 0.000000
vn 1.000000 0.000000 0.000000
vn 1.000000 0.000000 0.000000
vn -1.000000 -0.000007 0.000148
vn -1.000000 -0.000007 0.000148
vn -1.000000 -0.000008 0.000000
vn -1.000000 -0.000008 0.000000
vn -1.000000 -0.000009 0.000000
vn -0.999799 -0.000000 -0.020041
vn -0.999799 -0.000000 -0.020041
vn -1.000000 -0.000009 0.000000
vn -1.000000 0.000000 0.000284
vn -0.999998 0.000000 -0.001864
vn 0.000002 0.000000 1.000000
vn 0.000001 0.000000 1.000000
vn 0.000000 0.000000 1.000000
vn 0.000000 0.000000 1.000000
vn 0.000000 0.000000 1.000000
vn 0.000000 0.000000 1.000000
vn 0.000002 0.000000 1.000000
vn 0.000002 0.000000 1.000000
vn 0.000000 0.000000 -1.000000
vn 0.000000 0.000000 -1.000000
vn -0.000000 0.000000 -1.000000
vn -0.000000 0.000000 -1.000000
vn -0.000000 0.000000 -1.000000
vn -0.000000 0.000000 -1.000000
vn 0.000000 0.000000 -1.000000
vn 0.000000 0.000000 -1.000000
vn -0.999987 0.000000 -0.005137
vn -1.000000 0.000000 0.000425
vn -0.999998 0.000000 0.002143
vn -1.000000 0.000000 -0.000800
vn -0.999771 0.000000 -0.021424
vn -0.999780 0.000000 -0.020993
vn 1.000000 0.000000 0.000000
vn 1.000000 0.000000 0.000000
vn 1.000000 0.000000 0.000000
vn 1.000000 0.000000 0.000000
vn 1.000000 0.000000 0.000000
vn 1.000000 0.000000 0.000000
vn 1.000000 0.000000 0.000000
vn 1.000000 0.000000 0.000000
vn 0.000000 0.000000 1.000000
vn 0.000000 0.000000 1.000000
vn 0.000000 0.000000 1.000000
vn 0.000000 0.000000 1.000000
vn -0.000002 0.000000 -1.000000
vn -0.000001 0.000000 -1.000000
vn 0.000000 0.000000 -1.000000
vn 0.000000 0.000000 -1.000000
vn 1.000000 0.000000 0.000000
vn 1.000000 0.000000 0.000000
vn 1.000000 0.000000 0.000000
vn 1.000000 0.000000 0.000000
vn -1.000000 -0.000007 0.000148
vn -1.000000 -0.000007 0.000148
vn -1.000000 -0.000008 0.000000
vn -1.000000 -0.000008 0.000000
vn -1.000000 0.000000 0.000000
vn -0.999793 -0.000009 -0.020364
vn -0.999793 -0.000009 -0.020364
vn -1.000000 0.000000 0.000000
vn -0.999998 0.000000 -0.001906
vn -1.000000 0.000000 0.000347
vn 0.000001 0.000000 1.000000
vn 0.000002 0.000000 1.000000
vn 0.000000 0.000000 1.000000
vn 0.000000 0.000000 1.000000
vn 0.000000 0.000000 1.000000
vn 0.000000 0.000000 1.000000
vn 0.000002 0.000000 1.000000
vn 0.000002 0.000000 1.000000
vn 0.000000 0.000000 -1.000000
vn 0.000000 0.000000 -1.000000
vn -0.000000 0.000000 -1.000000
vn -0.000001 0.000000 -1.000000
vn -0.000001 0.000000 -1.000000
vn -0.000000 0.000000 -1.000000
vn 0.000000 0.000000 -1.000000
vn 0.000000 0.000000 -1.000000
vn -1.000000 0.000000 0.000595
vn -0.999986 0.000000 -0.005238
vn -1.000000 0.000000 -0.000855
vn -0.999998 0.000000 0.002232
vn -0.999773 -0.000009 -0.021293
vn -0.999765 -0.000007 -0.021685
vn 1.000000 0.000000 0.000000
vn 1.000000 0.000000 0.000000
vn 1.000000 0.000000 0.000000
vn 1.000000 0.000000 0.000000
vn 1.000000 0.000000 0.000000
vn 1.000000 0.000000 0.000000
vn 1.000000 0.000000 0.000000
vn 1.000000 0.000000 0.000000
s 1
g SciFiLines Building_Generic_Block
usemtl initialShadingGroup
f 13/1/1 15/2/2 16/3/3 14/4/4
s 2
f 23/5/5 21/6/6 22/7/7 24/8/8
s 3
f 39/9/9 42/10/10 41/11/11 40/12/12
s 4
f 11/13/13 12/14/14 1/15/15 3/16/16
f 7/17/17 10/18/18 9/19/19 5/20/20
f 29/21/21 32/22/22 12/14/14 11/13/13
s 1
f 17/23/23 18/24/24 15/2/2 13/1/1
f 19/25/25 20/26/26 2/27/27 4/28/28
f 1/15/29 18/24/24 17/23/23 3/16/30
f 14/4/4 16/3/3 20/26/26 19/25/25
s 2
f 24/8/8 22/7/7 27/29/31 28/30/32
f 5/20/33 25/31/34 26/32/35 7/17/36
f 26/32/35 25/31/34 21/6/6 23/5/5
f 28/30/32 27/29/31 6/33/37 8/34/38
s 4
f 34/35/39 35/36/40 36/37/41 33/38/42
f 9/19/19 10/18/18 31/39/43 30/40/44
f 30/40/44 31/39/43 35/36/40 34/35/39
f 33/38/42 36/37/41 32/22/22 29/21/21
s 3
f 2/27/45 44/41/46 37/42/47 4/28/48
f 40/12/12 41/11/11 8/34/49 6/33/50
f 37/42/47 44/41/46 43/43/51 38/44/52
f 38/44/52 43/43/51 42/10/10 39/9/9
s 8
f 57/45/53 59/46/54 60/47/55 58/48/56
s 9
f 67/49/57 65/50/58 66/51/59 68/52/60
s 10
f 83/53/61 86/54/62 85/55/63 84/56/64
s 11
f 55/57/65 56/58/66 45/59/67 47/60/68
f 51/61/69 54/62/70 53/63/71 49/64/72
f 73/65/73 76/66/74 56/58/66 55/57/65
s 8
f 61/67/75 62/68/76 59/46/54 57/45/53
f 63/69/77 64/70/78 46/71/79 48/72/80
f 45/59/81 62/68/76 61/67/75 47/60/82
f 58/48/56 60/47/55 64/70/78 63/69/77
s 9
f 68/52/60 66/51/59 71/73/83 72/74/84
f 49/64/85 69/75/86 70/76/87 51/61/88
f 70/76/87 69/75/86 65/50/58 67/49/57
f 72/74/84 71/73/83 50/77/89 52/78/90
s 11
f 78/79/91 79/80/92 80/81/93 77/82/94
f 53/63/71 54/62/70 75/83/95 74/84/96
f 74/84/96 75/83/95 79/80/92 78/79/91
f 77/82/94 80/81/93 76/66/74 73/65/73
s 10
f 46/71/97 88/85/98 81/86/99 48/72/100
f 84/56/64 85/55/63 52/78/101 50/77/102
f 81/86/99 88/85/98 87/87/103 82/88/104
f 82/88/104 87/87/103 86/54/62 83/53/61
g default
v 22.920859 2.178586 20.118086
v 22.920857 0.037412 -20.711119
v -22.882674 0.037412 -20.711119
v 22.920861 39.180295 -20.711121
v -22.882670 39.180295 -20.711121
v 22.920857 0.037412 -10.152311
v -22.931796 0.037290 -10.152262
v -22.931792 39.180295 -10.152264
v 22.920861 39.180295 -10.152312
v 22.920857 0.037412 20.767141
v -22.931794 0.037290 20.767195
v -22.931788 39.180295 20.767195
v 22.920861 39.180295 20.767141
v -22.931792 0.247678 -9.339617
v -22.931796 38.374265 -9.339617
v -22.931792 38.374265 19.954557
v -22.931792 0.247678 19.954557
v 22.920861 2.178647 -9.503252
v 22.920861 38.256162 -9.503252
v 22.920861 38.256162 20.118086
v -22.931792 0.247678 -9.339617
v -22.931796 38.374265 -9.339617
v -22.931794 38.374265 19.954557
v -22.931792 0.247678 19.954557
v 22.920859 2.178586 -9.503252
v 22.920859 38.256101 -9.503252
v 22.920859 2.178586 20.118086
v 22.920859 38.256101 20.118086
v -19.160750 35.566221 19.954557
v -22.931777 35.566221 19.954557
vt 0.111871 0.335370
vt 0.111871 0.273170
vt 0.111871 0.273170
vt 0.111871 0.335370
vt 0.045959 0.335370
vt 0.062738 0.335370
vt 0.062738 0.273170
vt 0.045959 0.273170
vt 0.045959 0.273170
vt 0.062738 0.273170
vt 0.062738 0.335370
vt 0.045959 0.335370
vt 0.288940 0.358366
vt 0.013544 0.358366
vt 0.013544 0.752251
vt 0.288940 0.752251
vt 0.289707 0.753348
vt 0.012778 0.753348
vt 0.012778 0.357270
vt 0.289707 0.357270
vt 0.064029 0.335036
vt 0.064029 0.274638
vt 0.110580 0.274638
vt 0.110580 0.335036
vt 0.063769 0.274638
vt 0.063769 0.335036
vt 0.110839 0.335036
vt 0.110839 0.274638
vt 0.064029 0.335036
vt 0.064029 0.274638
vt 0.110580 0.274638
vt 0.110580 0.335036
vt 0.063769 0.274638
vt 0.063769 0.335036
vt 0.110839 0.335036
vt 0.110839 0.274638
vt 0.110580 0.274638
vt 0.110580 0.274638
vn 0.000001 -0.000000 1.000000
vn 0.000001 -0.000000 1.000000
vn 0.000001 -0.000000 1.000000
vn 0.000001 -0.000000 1.000000
vn -0.999989 0.000000 -0.004652
vn -0.999989 0.000000 -0.004652
vn -0.999989 0.000000 -0.004652
vn -0.999989 0.000000 -0.004652
vn 1.000000 -0.000000 0.000000
vn 1.000000 -0.000000 0.000000
vn 1.000000 -0.000000 0.000000
vn 1.000000 -0.000000 0.000000
vn -1.000000 -0.000000 0.000000
vn -1.000000 -0.000000 0.000000
vn -1.000000 -0.000000 0.000000
vn -1.000000 -0.000000 0.000000
vn 1.000000 0.000000 0.000000
vn 1.000000 0.000000 0.000000
vn 1.000000 0.000000 0.000000
vn 1.000000 0.000000 0.000000
vn -1.000000 0.000000 0.000000
vn -1.000000 0.000000 0.000000
vn -1.000000 0.000000 0.000000
vn -1.000000 0.000000 0.000000
vn -1.000000 0.000005 0.000000
vn -1.000000 0.000005 0.000000
vn -1.000000 0.000005 0.000000
vn -1.000000 0.000005 0.000000
vn -1.000000 0.000000 0.000001
vn -1.000000 0.000000 0.000001
vn -1.000000 0.000000 0.000001
vn -1.000000 0.000000 0.000001
vn -1.000000 0.000019 0.000000
vn -1.000000 0.000019 0.000000
vn -1.000000 0.000019 0.000000
vn -1.000000 0.000019 0.000000
vn 1.000000 -0.000000 -0.000003
vn 1.000000 -0.000000 -0.000003
vn 1.000000 -0.000000 -0.000003
vn 1.000000 -0.000000 -0.000003
vn 1.000000 -0.000002 0.000000
vn 1.000000 -0.000002 0.000000
vn 1.000000 -0.000002 0.000000
vn 1.000000 -0.000002 0.000000
vn 1.000000 -0.000000 0.000001
vn 1.000000 -0.000000 0.000001
vn 1.000000 -0.000000 0.000001
vn 1.000000 -0.000000 0.000001
vn 1.000000 0.000000 0.000000
vn 1.000000 0.000000 0.000000
vn 1.000000 0.000000 0.000000
vn 1.000000 0.000000 0.000000
vn 0.000000 0.000000 0.000000
vn 0.000000 0.000000 0.000000
vn 0.000000 0.000000 0.000000
vn 0.000000 0.000000 0.000000
vn 0.000000 0.000000 1.000000
vn 0.000000 0.000000 1.000000
vn 0.000000 0.000000 0.000000
vn 0.000000 0.000000 0.000000
vn 0.000000 0.000000 0.000000
vn 0.000000 0.000000 0.000000
vn 0.000000 0.000000 0.000000
vn 0.000000 0.000000 0.000000
vn 0.000000 0.000000 1.000000
vn 0.000000 0.000000 1.000000
vn 0.000000 0.000000 1.000000
vn 0.000000 0.000000 1.000000
vn -0.997728 0.067366 0.000000
vn -0.997728 0.067366 0.000000
vn -0.000000 0.000000 0.000000
vn -0.000000 0.000000 0.000000
vn 0.000000 0.000000 -0.000000
vn 0.000000 0.000000 -0.000000
vn 0.000000 0.000000 -1.000000
vn 0.000000 0.000000 -1.000000
vn 0.999431 -0.033740 0.000000
vn 0.999431 -0.033740 0.000000
vn 0.999431 -0.033740 0.000000
vn 0.999431 -0.033740 0.000000
vn 0.000000 -0.000000 -1.000000
vn 0.000000 -0.000000 -1.000000
vn 0.000000 -0.000000 -1.000000
vn 0.000000 -0.000000 -1.000000
vn 0.000000 1.000000 0.000000
vn 0.000000 1.000000 0.000000
vn 0.000000 1.000000 0.000000
vn 0.000000 1.000000 0.000000
vn 0.000000 1.000000 0.000000
vn 0.000000 1.000000 0.000000
vn 0.000000 0.000000 1.000000
vn 0.000000 0.000000 1.000000
vn 0.000000 0.000000 1.000000
vn 0.000000 0.000000 1.000000
s off
g Building_Generic_Block MainBuilding
usemtl initialShadingGroup
f 98/89/105 101/90/106 100/91/107 99/92/108
f 91/93/109 95/94/110 96/95/111 93/96/112
f 92/97/113 97/98/114 94/99/115 90/100/116
f 109/101/117 112/102/118 111/103/119 110/104/120
f 114/105/121 116/106/122 115/107/123 113/108/124
f 95/94/125 102/109/126 103/110/127 96/95/128
f 96/95/129 103/110/130 104/111/131 100/91/132
f 100/91/133 104/111/134 105/112/135 99/92/136
f 99/92/137 105/112/138 102/109/139 95/94/140
f 97/98/141 107/113/142 106/114/143 94/99/144
f 94/99/145 106/114/146 89/115/147 98/89/148
f 98/89/149 89/115/150 108/116/151 101/90/152
f 101/90/153 108/116/154 107/113/155 97/98/156
f 102/109/157 109/117/158 110/118/159 103/110/160
f 104/111/161 111/119/162 112/120/163 105/112/164
f 105/112/165 112/120/166 109/117/167 102/109/168
f 107/113/169 114/121/170 113/122/171 106/114/172
f 106/114/173 113/122/174 115/123/175 89/115/176
f 89/115/177 115/123/178 116/124/179 108/116/180
f 108/116/181 116/124/182 114/121/183 107/113/184
f 92/97/185 90/100/186 91/93/187 93/96/188
f 93/96/189 96/95/190 100/91/191 101/90/192 97/98/193 92/97/194
f 111/119/195 104/111/196 118/126/197 117/125/198
g default
v -22.992568 38.892283 20.819904
v 22.999227 38.892283 20.819878
v -22.992568 39.144480 20.819904
v 22.999227 39.144480 20.819878
v -22.914012 39.144480 -20.767891
v 22.999227 39.144480 -20.767895
v -22.914012 38.892283 -20.767891
v 22.999227 38.892283 -20.767895
v -22.914012 39.144480 -20.659103
v -22.914012 38.892283 -20.659100
v -22.992572 39.144480 -10.152282
v -22.992572 38.892283 -10.152281
v -7.830242 39.144480 20.819878
v 4.023813 39.144480 20.819878
v -7.830242 38.892283 20.819878
v 4.023813 38.892283 20.819878
v -10.663515 39.144480 20.819878
v -10.663515 38.892283 20.819878
v 10.673771 39.144480 20.819878
v 10.673771 38.892283 20.819878
v -3.848922 39.144480 -20.767895
v 5.422845 39.144480 -20.767895
v -3.848922 38.892283 -20.767895
v 5.422845 38.892283 -20.767895
v -8.358893 39.144480 -20.767895
v -8.358893 38.892283 -20.767895
v 8.330280 39.144480 -20.767895
v 8.330280 38.892283 -20.767895
v -22.997630 39.144480 -13.319950
v -22.979692 39.144480 -17.543473
v -22.979692 38.892283 -17.543472
v -22.997630 38.892283 -13.319950
v -22.988915 40.167918 -14.164655
v -22.999227 40.167918 -16.698769
v -22.999227 39.915659 -16.698768
v -22.988914 39.915659 -14.164654
v 22.999227 39.144480 -12.721109
v 22.999227 40.167918 -14.065616
v 22.999227 40.167918 -16.450294
v 22.999227 39.144480 -17.794827
v 22.999227 38.892283 -17.794815
v 22.999227 39.915659 -16.450294
v 22.999227 39.915659 -14.065616
v 22.999227 38.892283 -12.721109
vt 0.336214 0.707504
vt 0.341145 0.707535
vt 0.340908 0.745866
vt 0.335976 0.745836
vt 0.341303 0.688785
vt 0.336372 0.688754
vt 0.336095 0.733336
vt 0.341027 0.733366
vt 0.351151 0.822596
vt 0.356082 0.822626
vt 0.356082 0.822626
vt 0.351151 0.822596
vt 0.352340 0.630939
vt 0.357271 0.630969
vt 0.357271 0.630969
vt 0.352340 0.630939
vt 0.357465 0.599718
vt 0.357465 0.599718
vt 0.352533 0.599687
vt 0.352533 0.599687
vt 0.352398 0.621563
vt 0.357329 0.621594
vt 0.351959 0.692269
vt 0.356891 0.692300
vt 0.351531 0.761266
vt 0.356463 0.761296
vt 0.356082 0.822626
vt 0.351151 0.822596
vt 0.351593 0.751265
vt 0.356525 0.751296
vt 0.352091 0.671018
vt 0.357022 0.671049
vt 0.351151 0.822596
vt 0.356082 0.822626
vt 0.352460 0.611563
vt 0.357391 0.611593
vt 0.357345 0.619094
vt 0.352413 0.619063
vt 0.357407 0.609093
vt 0.352475 0.609063
vt 0.356082 0.822626
vt 0.351151 0.822596
vt 0.356082 0.822626
vt 0.351151 0.822596
vn 0.000000 0.000000 1.000000
vn 0.000000 0.000000 1.000000
vn 0.000000 0.000000 1.000000
vn 0.000000 0.000000 1.000000
vn 0.000000 0.000000 -1.000000
vn 0.000000 0.000000 -1.000000
vn 0.000000 0.000000 -1.000000
vn 0.000000 0.000000 -1.000000
vn 1.000000 0.000000 0.000000
vn 1.000000 0.000000 0.000000
vn 1.000000 0.000000 0.000000
vn 1.000000 0.000000 0.000000
vn -1.000000 -0.000007 0.000148
vn -1.000000 -0.000007 0.000148
vn -1.000000 -0.000008 0.000000
vn -1.000000 -0.000008 0.000000
vn -1.000000 0.000000 0.000000
vn -0.999793 -0.000009 -0.020364
vn -0.999793 -0.000009 -0.020364
vn -1.000000 0.000000 0.000000
vn -0.999998 0.000000 -0.001906
vn -1.000000 0.000000 0.000347
vn 0.000002 0.000000 1.000000
vn 0.000002 0.000000 1.000000
vn 0.000000 0.000000 1.000000
vn 0.000000 0.000000 1.000000
vn 0.000000 0.000000 1.000000
vn 0.000000 0.000000 1.000000
vn 0.000002 0.000000 1.000000
vn 0.000002 0.000000 1.000000
vn 0.000000 0.000000 -1.000000
vn 0.000000 0.000000 -1.000000
vn -0.000000 0.000000 -1.000000
vn -0.000000 0.000000 -1.000000
vn -0.000000 0.000000 -1.000000
vn -0.000000 0.000000 -1.000000
vn 0.000000 0.000000 -1.000000
vn 0.000000 0.000000 -1.000000
vn -1.000000 0.000000 0.000595
vn -0.999986 0.000000 -0.005238
vn -1.000000 0.000000 -0.000855
vn -0.999998 0.000000 0.002232
vn -0.999773 -0.000009 -0.021293
vn -0.999765 -0.000007 -0.021685
vn 1.000000 0.000000 0.000000
vn 1.000000 0.000000 0.000000
vn 1.000000 0.000000 0.000000
vn 1.000000 0.000000 0.000000
vn 1.000000 0.000000 0.000000
vn 1.000000 0.000000 0.000000
vn 1.000000 0.000000 0.000000
vn 1.000000 0.000000 0.000000
s 1
g Building_Generic_Block SciFiLines4
usemtl initialShadingGroup
f 131/127/199 133/128/200 134/129/201 132/130/202
s 2
f 141/131/203 139/132/204 140/133/205 142/134/206
s 3
f 157/135/207 160/136/208 159/137/209 158/138/210
s 4
f 129/139/211 130/140/212 119/141/213 121/142/214
f 125/143/215 128/144/216 127/145/217 123/146/218
f 147/147/219 150/148/220 130/140/212 129/139/211
s 1
f 135/149/221 136/150/222 133/128/200 131/127/199
f 137/151/223 138/152/224 120/153/225 122/154/226
f 119/141/227 136/150/222 135/149/221 121/142/228
f 132/130/202 134/129/201 138/152/224 137/151/223
s 2
f 142/134/206 140/133/205 145/155/229 146/156/230
f 123/146/231 143/157/232 144/158/233 125/143/234
f 144/158/233 143/157/232 139/132/204 141/131/203
f 146/156/230 145/155/229 124/159/235 126/160/236
s 4
f 152/161/237 153/162/238 154/163/239 151/164/240
f 127/145/217 128/144/216 149/165/241 148/166/242
f 148/166/242 149/165/241 153/162/238 152/161/237
f 151/164/240 154/163/239 150/148/220 147/147/219
s 3
f 120/153/243 162/167/244 155/168/245 122/154/246
f 158/138/210 159/137/209 126/160/247 124/159/248
f 155/168/245 162/167/244 161/169/249 156/170/250
f 156/170/250 161/169/249 160/136/208 157/135/207
