# This file uses centimeters as units for non-parametric coordinates.

mtllib Building_Garage_3.mtl
g default
v -11.633604 0.051973 7.525503
v 11.633604 0.051973 7.525503
v -11.633604 9.967347 7.525503
v 11.633604 9.967347 7.525503
v -11.633604 9.967347 -7.525503
v 11.633604 9.967347 -7.525503
v -11.633604 0.051973 -7.525503
v 11.633604 0.051973 -7.525503
v -12.731074 10.910604 7.525503
v 12.731074 10.910604 7.525503
v 12.731074 10.910604 -7.525503
v -12.731074 10.910604 -7.525503
v -12.731074 11.882328 7.525503
v 12.731074 11.882328 7.525503
v 12.731074 11.882328 -7.525503
v -12.731074 11.882328 -7.525503
v 11.501563 0.042157 -4.993666
v 11.501563 0.042157 4.993666
v 11.501563 5.228203 -4.524176
v 11.501563 5.228203 4.524176
v 10.847809 0.042157 -4.993666
v 10.847809 0.042157 4.993666
v 10.847809 5.228203 -4.524176
v 10.847809 5.228203 4.524176
v 10.797504 2.673329 -4.985876
v 11.551868 2.673329 -4.985876
v 11.633604 2.707289 -7.525504
v -11.633604 2.707290 -7.525504
v -11.633604 2.688467 7.525503
v 11.633604 2.688467 7.525503
v 11.551868 2.673329 4.985876
v 10.797504 2.673329 4.985876
v -11.633604 0.051973 0.000000
v -11.633604 2.825537 -0.000000
v -11.633604 9.967347 0.000000
v -12.731074 10.910604 0.000000
v -12.731074 11.882328 0.000000
v 12.731074 11.882328 0.000000
v 12.731074 10.910604 0.000000
v 11.633604 9.967347 0.000000
v 11.551868 7.853366 0.000000
v 10.797504 7.853366 0.000000
v -11.633604 0.051973 -3.762752
v -11.633604 2.769855 -3.748263
v -11.633604 9.967347 -3.762752
v -12.731074 10.910604 -3.762752
v -12.731074 11.882328 -3.762752
v 12.731074 11.882328 -3.762752
v 12.731074 10.910604 -3.762752
v 11.633604 9.967347 -3.762752
v 11.526715 7.255165 -2.628772
v 10.822657 7.255165 -2.628772
v -11.633604 0.051973 4.348069
v -11.633604 2.769855 3.748263
v -11.633604 9.967347 3.762752
v -12.731074 10.910604 3.762752
v -12.731074 11.882328 3.762752
v 12.731074 11.882328 3.762752
v 12.731074 10.910604 3.762752
v 11.633604 9.967347 3.762752
v 11.526715 7.255165 2.628772
v 10.822657 7.255165 2.628772
vt 0.014396 0.021523
vt 0.457011 0.021523
vt 0.457011 0.210144
vt 0.014396 0.210144
vt 0.054460 0.439412
vt 0.054460 0.439412
vt 0.253977 0.439412
vt 0.253977 0.439412
vt 0.014408 0.210144
vt 0.457022 0.210144
vt 0.457022 0.021523
vt 0.014408 0.021523
vt 0.465349 0.021043
vt 0.751666 0.021043
vt 0.751666 0.209665
vt 0.465349 0.209665
vt 0.054460 0.414027
vt 0.054460 0.414027
vt 0.054460 0.426531
vt 0.054460 0.426531
vt 0.019511 0.234267
vt 0.292021 0.234267
vt 0.292021 0.251346
vt 0.019511 0.251346
vt 0.253977 0.414027
vt 0.253977 0.414027
vt 0.253977 0.426531
vt 0.253977 0.426531
vt 0.253977 0.282587
vt 0.253977 0.414027
vt 0.234644 0.394158
vt 0.234644 0.282500
vt 0.054460 0.414027
vt 0.073793 0.394158
vt 0.054460 0.282587
vt 0.073793 0.282500
vt 0.234644 0.394158
vt 0.234644 0.282500
vt 0.073793 0.394158
vt 0.073793 0.282500
vt 0.234644 0.349495
vt 0.234644 0.322067
vt 0.457022 0.078523
vt 0.253977 0.322247
vt 0.465349 0.078043
vt 0.014408 0.078523
vt 0.751666 0.078043
vt 0.014396 0.078523
vt 0.457011 0.078523
vt 0.054460 0.322247
vt 0.073793 0.322067
vt 0.073793 0.349495
vt 0.608507 0.021043
vt 0.608507 0.078043
vt 0.608507 0.209665
vt 0.154219 0.414027
vt 0.154219 0.426531
vt 0.154219 0.439412
vt 0.154218 0.439412
vt 0.154218 0.426531
vt 0.155766 0.251346
vt 0.155766 0.234267
vt 0.154218 0.414027
vt 0.154218 0.394158
vt 0.154218 0.394158
vt 0.536928 0.021043
vt 0.536928 0.078043
vt 0.536928 0.209665
vt 0.204098 0.414027
vt 0.204098 0.426531
vt 0.204098 0.439412
vt 0.204098 0.439412
vt 0.204098 0.426531
vt 0.223893 0.251346
vt 0.223893 0.234267
vt 0.204098 0.414027
vt 0.194431 0.394158
vt 0.194431 0.394158
vt 0.680087 0.021043
vt 0.680086 0.078043
vt 0.680086 0.209665
vt 0.104339 0.414027
vt 0.104339 0.426531
vt 0.104339 0.439412
vt 0.104339 0.439412
vt 0.104339 0.426531
vt 0.087638 0.251346
vt 0.087638 0.234267
vt 0.104339 0.414027
vt 0.114006 0.394158
vt 0.114006 0.394158
vn 0.000000 0.000000 1.000000
vn 0.000000 0.000000 1.000000
vn 0.000000 0.000000 1.000000
vn 0.000000 0.000000 1.000000
vn 0.000000 1.000000 0.000000
vn 0.000000 1.000000 0.000000
vn 0.000000 1.000000 0.000000
vn 0.000000 1.000000 0.000000
vn -0.000000 0.000000 -1.000000
vn -0.000000 0.000000 -1.000000
vn -0.000000 0.000000 -1.000000
vn -0.000000 0.000000 -1.000000
vn -1.000000 0.000000 0.000000
vn -1.000000 -0.000000 0.000000
vn -1.000000 -0.000000 0.000000
vn -1.000000 -0.000000 0.000000
vn 0.000000 0.000000 1.000000
vn 0.000000 0.000000 1.000000
vn 0.000000 0.000000 1.000000
vn 0.000000 0.000000 1.000000
vn 0.651814 -0.758379 0.000000
vn 0.651814 -0.758379 0.000000
vn 0.651814 -0.758379 0.000000
vn 0.651814 -0.758379 0.000000
vn 0.000000 0.000000 -1.000000
vn 0.000000 0.000000 -1.000000
vn 0.000000 0.000000 -1.000000
vn 0.000000 0.000000 -1.000000
vn -0.651814 -0.758379 0.000000
vn -0.651814 -0.758379 0.000000
vn -0.651814 -0.758379 0.000000
vn -0.651814 -0.758379 0.000000
vn 0.000000 0.000000 1.000000
vn 0.000000 0.000000 1.000000
vn 0.000000 0.000000 1.000000
vn 0.000000 0.000000 1.000000
vn 1.000000 0.000000 0.000000
vn 1.000000 0.000000 0.000000
vn 1.000000 0.000000 0.000000
vn 1.000000 0.000000 0.000000
vn 0.000000 0.000000 -1.000000
vn 0.000000 0.000000 -1.000000
vn 0.000000 0.000000 -1.000000
vn 0.000000 0.000000 -1.000000
vn -1.000000 0.000000 0.000000
vn -1.000000 0.000000 0.000000
vn -1.000000 0.000000 0.000000
vn -1.000000 0.000000 0.000000
vn 0.999138 -0.000664 0.041512
vn 0.999137 -0.000872 0.041524
vn 0.999142 0.003179 0.041286
vn 0.999142 0.003179 0.041286
vn 0.999568 -0.028793 0.005871
vn 0.999492 -0.031598 0.004203
vn 0.999467 -0.032437 0.003704
vn 0.999568 -0.028793 0.005871
vn 0.999143 0.003173 -0.041271
vn 0.999137 -0.000898 -0.041525
vn 0.999138 -0.000640 -0.041509
vn 0.999143 0.003173 -0.041271
vn -0.000000 -0.090153 0.995928
vn -0.000000 -0.090153 0.995928
vn 0.000000 -0.177833 0.984061
vn 0.000000 -0.177833 0.984061
vn 0.000000 -0.683006 0.730413
vn 0.000000 -0.871267 0.490809
vn 0.000000 -0.871267 0.490809
vn 0.000000 -0.683006 0.730413
vn 0.000000 -0.177833 -0.984061
vn -0.000000 -0.090153 -0.995928
vn -0.000000 -0.090153 -0.995928
vn 0.000000 -0.177833 -0.984061
vn -0.000001 -0.002961 0.999996
vn -0.000001 -0.002961 0.999996
vn 0.999071 -0.009569 0.042031
vn 0.999071 -0.009569 0.042031
vn 0.000000 -0.000000 -1.000000
vn 0.000000 -0.000000 -1.000000
vn -1.000000 0.000000 0.000000
vn -1.000000 0.000000 0.000000
vn 0.000000 0.000000 1.000000
vn 0.000000 0.000000 1.000000
vn 0.999069 -0.009603 -0.042066
vn 0.999069 -0.009603 -0.042066
vn -0.000000 -0.002961 -0.999996
vn -0.000000 -0.002961 -0.999996
vn -1.000000 -0.000000 0.000000
vn -1.000000 0.000000 0.000000
vn -1.000000 0.000000 0.000000
vn -1.000000 -0.000000 0.000000
vn -1.000000 -0.000000 0.000000
vn -1.000000 -0.000000 0.000000
vn -0.651814 -0.758379 0.000000
vn -0.651814 -0.758379 0.000000
vn -0.651814 -0.758379 0.000000
vn -0.651814 -0.758379 0.000000
vn -1.000000 0.000000 0.000000
vn -1.000000 0.000000 0.000000
vn -1.000000 0.000000 0.000000
vn -1.000000 0.000000 0.000000
vn 0.000000 1.000000 0.000000
vn 0.000000 1.000000 0.000000
vn 0.000000 1.000000 0.000000
vn 0.000000 1.000000 0.000000
vn 1.000000 0.000000 0.000000
vn 1.000000 0.000000 0.000000
vn 1.000000 0.000000 0.000000
vn 1.000000 0.000000 0.000000
vn 0.651814 -0.758379 0.000000
vn 0.651814 -0.758379 0.000000
vn 0.651814 -0.758379 0.000000
vn 0.651814 -0.758379 0.000000
vn 0.999235 -0.039118 0.000000
vn 0.999235 -0.039118 0.000000
vn 0.999492 -0.031598 -0.004203
vn 0.999467 -0.032437 -0.003704
vn 0.000000 -1.000000 0.000000
vn 0.000000 -1.000000 0.000000
vn 0.000000 -0.871267 -0.490809
vn 0.000000 -0.871267 -0.490809
vn -1.000000 0.000000 0.000000
vn -1.000000 0.000000 0.000000
vn -1.000000 0.000000 0.000000
vn -0.651814 -0.758379 0.000000
vn -0.651814 -0.758379 0.000000
vn -1.000000 0.000000 0.000000
vn -1.000000 0.000000 0.000000
vn 0.000000 1.000000 0.000000
vn 0.000000 1.000000 0.000000
vn 1.000000 0.000000 0.000000
vn 1.000000 0.000000 0.000000
vn 0.651814 -0.758379 0.000000
vn 0.651814 -0.758379 0.000000
vn 0.999568 -0.028793 -0.005871
vn 0.999568 -0.028793 -0.005871
vn 0.000000 -0.683006 -0.730413
vn 0.000000 -0.683006 -0.730413
s 1
g Garage Buildings_Garage_v3
usemtl initialShadingGroup
f 29/48/1 30/49/2 4/3/3 3/4/4
s 2
f 47/71/5 48/72/6 15/7/7 16/8/8
s 3
f 5/9/9 6/10/10 27/43/11 28/46/12
s 4
f 28/45/13 44/67/14 45/68/15 5/16/16
s off
f 3/17/17 4/18/18 10/19/19 9/20/20
s 5
f 49/74/21 50/75/22 6/22/23 11/23/24
s off
f 6/25/25 5/26/26 12/27/27 11/28/28
s 6
f 5/26/29 45/69/30 46/70/31 12/27/32
s off
f 9/20/33 10/19/34 14/6/35 13/5/36
s 7
f 48/72/37 49/73/38 11/28/39 15/7/40
s off
f 11/28/41 12/27/42 16/8/43 15/7/44
s 8
f 12/27/45 46/70/46 47/71/47 16/8/48
s 9
f 26/42/49 27/44/50 6/30/51 19/31/52
s 10
f 6/30/53 50/76/54 51/77/55 19/31/56
s 11
f 4/33/57 30/50/58 31/51/59 20/34/60
s 12
f 25/41/61 26/42/62 19/31/63 23/37/64
s 13
f 19/31/65 51/77/66 52/78/67 23/37/68
s 14
f 20/34/69 31/51/70 32/52/71 24/39/72
s 12
f 17/32/73 26/42/62 25/41/61 21/38/74
s 9
f 8/29/75 27/44/50 26/42/49 17/32/76
s 3
f 28/46/12 27/43/11 8/11/77 7/12/78
s 4
f 7/13/79 43/66/80 44/67/14 28/45/13
s 1
f 1/1/81 2/2/82 30/49/2 29/48/1
s 11
f 31/51/59 30/50/58 2/35/83 18/36/84
s 14
f 32/52/71 31/51/70 18/36/85 22/40/86
s 4
f 34/54/87 33/53/88 53/79/89 54/80/90
f 35/55/91 34/54/87 54/80/90 55/81/92
s 6
f 36/57/93 35/56/94 55/82/95 56/83/96
s 8
f 37/58/97 36/57/98 56/83/99 57/84/100
s 2
f 57/84/101 58/85/102 38/59/103 37/58/104
s 7
f 58/85/105 59/86/106 39/60/107 38/59/108
s 5
f 59/87/109 60/88/110 40/62/111 39/61/112
s 10
f 41/64/113 40/63/114 60/89/115 61/90/116
s 13
f 42/65/117 41/64/118 61/90/119 62/91/120
s 4
f 44/67/14 43/66/80 33/53/88 34/54/87
f 45/68/15 44/67/14 34/54/87 35/55/91
s 6
f 46/70/31 45/69/30 35/56/94 36/57/93
s 8
f 47/71/47 46/70/46 36/57/98 37/58/97
s 2
f 37/58/104 38/59/103 48/72/6 47/71/5
s 7
f 38/59/108 39/60/107 49/73/38 48/72/37
s 5
f 39/61/112 40/62/111 50/75/22 49/74/21
s 10
f 51/77/55 50/76/54 40/63/114 41/64/113
s 13
f 52/78/67 51/77/66 41/64/118 42/65/117
s 4
f 54/80/90 53/79/89 1/14/121 29/47/122
f 55/81/92 54/80/90 29/47/122 3/15/123
s 6
f 56/83/96 55/82/95 3/17/124 9/20/125
s 8
f 57/84/100 56/83/99 9/20/126 13/5/127
s 2
f 13/5/128 14/6/129 58/85/102 57/84/101
s 7
f 10/19/130 59/86/106 58/85/105 14/6/131
s 5
f 4/21/132 60/88/110 59/87/109 10/24/133
s 10
f 61/90/116 60/89/115 4/33/134 20/34/135
s 13
f 62/91/120 61/90/119 20/34/136 24/39/137
g default
v 10.715768 0.014752 -6.067080
v 10.715768 8.468517 -6.067080
v 10.715768 8.468517 6.067080
v 10.715768 0.014752 6.067080
vt 0.309368 0.230497
vt 0.540198 0.230497
vt 0.540198 0.390731
vt 0.309368 0.390731
vn 1.000000 0.000000 0.000000
vn 1.000000 0.000000 0.000000
vn 1.000000 0.000000 0.000000
vn 1.000000 0.000000 0.000000
s off
g Buildings_Garage_v3 Door
usemtl initialShadingGroup
f 66/92/138 63/93/139 64/94/140 65/95/141
g default
v 11.664345 9.067561 1.508986
v 12.366737 10.334988 1.508986
v 12.353778 10.308367 -1.512393
v 11.664345 9.067561 -1.506309
v 12.213073 9.558003 -2.040070
v 10.940037 9.179051 -2.033985
v 11.751922 8.729117 0.001339
v 10.940037 9.179051 2.036663
v 12.226032 9.584625 2.036663
v 11.888256 10.890068 2.036663
v 12.700143 10.440130 0.001339
v 11.875297 10.863445 -2.040070
v 11.414146 10.034562 2.715103
v 12.046293 11.175236 0.001339
v 11.401187 10.007941 -2.718511
v 10.781998 8.893883 0.001339
v 12.496658 9.434647 0.001339
vt 0.008107 0.355378
vt 0.011767 0.357136
vt 0.008107 0.362161
vt 0.003401 0.362161
vt 0.011767 0.367187
vt 0.008107 0.368945
vt 0.022223 0.368945
vt 0.022223 0.371207
vt 0.032722 0.366982
vt 0.036382 0.368740
vt 0.036382 0.361956
vt 0.041087 0.361956
vt 0.032680 0.357136
vt 0.036340 0.355378
vt 0.022223 0.355378
vt 0.022223 0.353116
vt 0.022223 0.362161
vn 0.036833 -0.921854 0.385782
vn 0.284578 -0.906140 0.312933
vn 0.792822 -0.423900 0.437883
vn 0.545894 -0.372727 0.750383
vn 0.923805 0.239934 0.298355
vn 0.800489 0.431092 0.416385
vn 0.968407 0.249329 -0.004732
vn 0.787732 0.615973 -0.007440
vn 0.922509 0.236850 -0.304759
vn 0.799129 0.428848 -0.421287
vn 0.791299 -0.427287 -0.437346
vn 0.545186 -0.376630 -0.748947
vn 0.278093 -0.910343 -0.306496
vn 0.030031 -0.925170 -0.378364
vn 0.301636 -0.953422 0.001545
vn -0.106953 -0.994264 0.000000
vn 0.879950 -0.475067 0.000198
s 1
g Buildings_Garage_v3 pCube2
usemtl initialShadingGroup
f 74/96/142 67/97/143 75/98/144 79/99/145
f 79/99/145 75/98/144 68/100/146 76/101/147
f 76/101/147 68/100/146 77/102/148 80/103/149
f 80/103/149 77/102/148 69/104/150 78/105/151
f 78/105/151 69/104/150 71/106/152 81/107/153
f 81/107/153 71/106/152 70/108/154 72/109/155
f 72/109/155 70/108/154 73/110/156 82/111/157
f 82/111/157 73/110/156 67/97/143 74/96/142
f 67/97/143 73/110/156 83/112/158 75/98/144
f 73/110/156 70/108/154 71/106/152 83/112/158
f 83/112/158 71/106/152 69/104/150 77/102/148
f 75/98/144 83/112/158 77/102/148 68/100/146
